HIERARCHY
ROOT Hips
{
	OFFSET 0.000000 0.000000 0.000000
	CHANNELS 6 Xposition Yposition Zposition Xrotation Yrotation Zrotation
	JOINT LeftUpLeg_virtual
	{
		OFFSET 0.000000 0.000000 0.000000
		CHANNELS 3 Xrotation Yrotation Zrotation
		JOINT LeftUpLeg
		{
			OFFSET 15.427100 -6.655098 0.678600
			CHANNELS 3 Xrotation Yrotation Zrotation
			JOINT LeftLeg
			{
				OFFSET 4.081073 -39.591068 13.024000
				CHANNELS 3 Xrotation Yrotation Zrotation
				JOINT LeftFoot
				{
					OFFSET -4.081074 -37.707932 -15.979700
					CHANNELS 3 Xrotation Yrotation Zrotation
					JOINT LeftToeBase
					{
						OFFSET 5.346399 -15.068900 20.645000
						CHANNELS 3 Xrotation Yrotation Zrotation
						JOINT LeftToe_End
						{
							OFFSET 2.754700 0.931300 11.300900
							CHANNELS 3 Xrotation Yrotation Zrotation
							End Site
							{
								OFFSET 0 0 0
							}
						}
					}
				}
			}
		}
	}
	JOINT RightUpLeg_virtual
	{
		OFFSET 0.000000 0.000000 0.000000
		CHANNELS 3 Xrotation Yrotation Zrotation
		JOINT RightUpLeg
		{
			OFFSET -15.569500 -6.655098 0.678600
			CHANNELS 3 Xrotation Yrotation Zrotation
			JOINT RightLeg
			{
				OFFSET -4.081825 -39.591045 13.023800
				CHANNELS 3 Xrotation Yrotation Zrotation
				JOINT RightFoot
				{
					OFFSET 4.081824 -37.707954 -15.979600
					CHANNELS 3 Xrotation Yrotation Zrotation
					JOINT RightToeBase
					{
						OFFSET -5.346400 -15.068900 20.645000
						CHANNELS 3 Xrotation Yrotation Zrotation
						JOINT RightToe_End
						{
							OFFSET -2.754700 0.931300 11.300900
							CHANNELS 3 Xrotation Yrotation Zrotation
							End Site
							{
								OFFSET 0 0 0
							}
						}
					}
				}
			}
		}
	}
	JOINT Spine_virtual
	{
		OFFSET 0.000000 0.000000 0.000000
		CHANNELS 3 Xrotation Yrotation Zrotation
		JOINT Spine
		{
			OFFSET -0.279200 12.230698 -2.892100
			CHANNELS 3 Xrotation Yrotation Zrotation
			JOINT Spine1
			{
				OFFSET -0.232667 10.192268 -1.242267
				CHANNELS 3 Xrotation Yrotation Zrotation
				JOINT Spine1_split
				{
					OFFSET -0.232667 10.192268 -1.242267
					CHANNELS 3 Xrotation Yrotation Zrotation
					JOINT Spine2
					{
						OFFSET -0.232667 10.192268 -1.242267
						CHANNELS 3 Xrotation Yrotation Zrotation
						JOINT Neck_virtual
						{
							OFFSET 0.000000 0.000000 0.000000
							CHANNELS 3 Xrotation Yrotation Zrotation
							JOINT Neck
							{
								OFFSET -0.418800 17.814194 8.416900
								CHANNELS 3 Xrotation Yrotation Zrotation
								JOINT Head
								{
									OFFSET 0.000000 7.031097 3.806800
									CHANNELS 3 Xrotation Yrotation Zrotation
									JOINT HeadTop_End
									{
										OFFSET 0.000000 24.646606 12.978600
										CHANNELS 3 Xrotation Yrotation Zrotation
										End Site
										{
											OFFSET 0 0 0
										}
									}
								}
							}
						}
						JOINT LeftShoulder_virtual
						{
							OFFSET 0.000000 0.000000 0.000000
							CHANNELS 3 Xrotation Yrotation Zrotation
							JOINT LeftShoulder
							{
								OFFSET 8.476499 7.247704 -3.868750
								CHANNELS 3 Xrotation Yrotation Zrotation
								JOINT LeftShoulder_split
								{
									OFFSET 8.476499 7.247704 -3.868750
									CHANNELS 3 Xrotation Yrotation Zrotation
									JOINT LeftArm
									{
										OFFSET 9.308998 -2.777710 0.208600
										CHANNELS 3 Xrotation Yrotation Zrotation
										JOINT LeftForeArm
										{
											OFFSET 29.972298 0.000000 0.000000
											CHANNELS 3 Xrotation Yrotation Zrotation
											JOINT LeftHand
											{
												OFFSET 26.026505 0.000000 0.000000
												CHANNELS 3 Xrotation Yrotation Zrotation
												End Site
												{
													OFFSET 0 0 0
												}
											}
										}
									}
								}
							}
						}
						JOINT RightShoulder_virtual
						{
							OFFSET 0.000000 0.000000 0.000000
							CHANNELS 3 Xrotation Yrotation Zrotation
							JOINT RightShoulder
							{
								OFFSET -7.570500 7.247704 -3.868750
								CHANNELS 3 Xrotation Yrotation Zrotation
								JOINT RightShoulder_split
								{
									OFFSET -7.570500 7.247704 -3.868750
									CHANNELS 3 Xrotation Yrotation Zrotation
									JOINT RightArm
									{
										OFFSET -9.308998 -2.777710 0.208500
										CHANNELS 3 Xrotation Yrotation Zrotation
										JOINT RightForeArm
										{
											OFFSET -29.972300 0.000000 0.000000
											CHANNELS 3 Xrotation Yrotation Zrotation
											JOINT RightHand
											{
												OFFSET -26.026505 0.000000 0.000000
												CHANNELS 3 Xrotation Yrotation Zrotation
												End Site
												{
													OFFSET 0 0 0
												}
											}
										}
									}
								}
							}
						}
					}
				}
			}
		}
	}
}
MOTION
Frames: 7
Frame Time: 0.03333333
5.485423 93.391663 -6.922073 0.000000 0.000000 0.000000 -20.076614 -31.467925 -12.490568 1.345531 19.184448 -1.436880 23.605849 8.129470 2.634727 -7.431891 4.272096 -4.907516 -9.457302 -2.807059 -0.239030 0.000000 0.000000 0.000000 -18.805333 -30.524764 -11.998295 13.496958 -9.461985 -0.413845 15.620081 17.870877 -1.359280 -17.424209 -25.481491 12.928766 -1.967629 6.484249 -12.723848 0.000000 0.000000 0.000000 -19.839507 -29.485513 -13.617451 8.679436 -3.664185 -0.807589 3.713857 -0.487984 -0.858678 0.118090 0.144346 -0.015539 0.000000 0.000000 0.000000 5.949050 1.416138 -0.695678 7.543613 7.630734 3.939418 -12.962193 -24.620026 14.157147 0.000000 0.000000 0.000000 6.034061 -0.695407 -0.917877 3.280887 -6.144623 -12.751328 6.827891 -8.842013 0.175714 -27.881182 12.694146 -34.153760 14.305216 -53.677815 10.436568 0.000000 0.000000 0.000000 4.645011 -0.728044 -0.221549 -2.835584 8.617295 20.201729 7.923163 1.758007 0.193468 -9.135047 1.582024 57.534911 -4.367310 41.405180 1.432692 0.000000 0.000000 0.000000 
6.209797 93.459900 -6.094639 0.000000 0.000000 0.000000 -20.645266 -34.287498 -13.386995 1.978638 20.547856 -2.202875 22.752555 8.482052 2.402628 -7.749598 5.634660 -3.172194 -7.655234 -2.414888 -0.421841 0.000000 0.000000 0.000000 -19.290592 -32.875855 -12.828092 12.203182 -9.427037 -1.300711 15.564797 18.026449 -1.662592 -15.772995 -24.861484 13.372573 -3.001316 6.766363 -12.651894 0.000000 0.000000 0.000000 -20.475504 -32.186857 -14.624152 8.787828 -3.638362 -1.139882 3.634985 -0.523067 -0.918850 0.117615 0.115349 -0.011396 0.000000 0.000000 0.000000 5.881444 1.400468 -0.693550 7.495550 7.895312 3.856878 -13.133168 -23.408588 14.088053 0.000000 0.000000 0.000000 6.015225 -0.694009 -0.896664 3.294893 -6.162909 -12.689076 6.684563 -8.885187 0.036885 -27.773564 12.702471 -33.919816 14.229818 -53.590597 10.358743 0.000000 0.000000 0.000000 4.607227 -0.761447 -0.234808 -2.872204 8.789636 20.412147 8.065949 1.710724 0.218942 -9.526772 1.763457 57.642726 -4.417175 41.147628 1.349596 0.000000 0.000000 0.000000 
6.992567 93.498795 -5.277905 0.000000 0.000000 0.000000 -21.441849 -36.994518 -14.446909 2.663045 21.517350 -2.843489 22.132661 8.377338 2.147307 -8.206448 6.660078 -2.411875 -6.470140 -2.031977 -0.667267 0.000000 0.000000 0.000000 -19.997556 -35.549475 -13.838108 10.964380 -9.417479 -1.913966 15.641051 17.691464 -1.793953 -14.602219 -24.295806 13.048708 -3.652158 6.972624 -12.201444 0.000000 0.000000 0.000000 -21.080761 -34.879741 -15.714160 8.827637 -3.623464 -1.442321 3.560274 -0.562001 -0.961488 0.137712 0.083594 -0.003338 0.000000 0.000000 0.000000 5.859896 1.369308 -0.677472 7.467397 8.190523 3.790677 -13.484632 -22.170850 13.981957 0.000000 0.000000 0.000000 6.036959 -0.697403 -0.863444 3.325482 -6.090069 -12.600564 6.604565 -8.940684 -0.081694 -27.690975 12.657445 -33.757759 14.154536 -53.571131 10.282679 0.000000 0.000000 0.000000 4.618297 -0.804913 -0.253287 -2.908496 8.960399 20.605573 8.243466 1.770591 0.243924 -9.873348 1.955704 57.740814 -4.441059 40.930288 1.240616 0.000000 0.000000 0.000000 
7.796291 93.493622 -4.464104 0.000000 0.000000 0.000000 -22.451175 -39.449653 -15.696217 3.245018 22.288116 -3.254145 21.776808 7.985502 1.890344 -8.651324 7.296131 -2.487508 -6.050823 -1.647366 -1.102123 0.000000 0.000000 0.000000 -20.928873 -38.471293 -15.092148 9.790672 -9.273745 -2.121079 15.903940 16.875260 -1.781152 -13.896415 -23.803421 12.059720 -3.780041 7.049289 -11.334334 0.000000 0.000000 0.000000 -21.716434 -37.565911 -16.918466 8.797307 -3.618559 -1.676499 3.486389 -0.604982 -0.994682 0.169273 0.045220 0.010363 0.000000 0.000000 0.000000 5.894207 1.331030 -0.655677 7.453145 8.502243 3.778934 -13.951932 -20.983420 13.933683 0.000000 0.000000 0.000000 6.093482 -0.706062 -0.829614 3.368685 -5.927585 -12.498134 6.599053 -9.002500 -0.139239 -27.654411 12.576163 -33.683153 14.096741 -53.577694 10.215474 0.000000 0.000000 0.000000 4.658211 -0.857412 -0.278888 -2.948863 9.120713 20.809650 8.454038 1.880919 0.228654 -10.159170 2.155233 57.807286 -4.430105 40.733944 1.104826 0.000000 0.000000 0.000000 
8.604358 93.442169 -3.650639 0.000000 0.000000 0.000000 -23.552386 -41.759941 -17.127755 3.892161 23.203858 -3.485706 21.577024 7.681605 1.673420 -9.269708 7.574568 -2.552116 -6.057501 -1.352515 -1.503288 0.000000 0.000000 0.000000 -22.032510 -41.488584 -16.567500 8.660548 -8.867964 -1.962747 16.424459 15.788296 -1.661114 -13.542680 -23.332239 10.947720 -3.729759 7.021686 -10.154519 0.000000 0.000000 0.000000 -22.423374 -40.190308 -18.233598 8.748358 -3.623150 -1.825168 3.411879 -0.646140 -1.038904 0.188750 -0.002419 0.030851 0.000000 0.000000 0.000000 5.988747 1.292023 -0.641855 7.437053 8.806980 3.838184 -14.481314 -19.911869 14.011035 0.000000 0.000000 0.000000 6.165562 -0.717885 -0.810769 3.422733 -5.679946 -12.383994 6.648164 -9.083108 -0.148026 -27.689744 12.485833 -33.683870 14.052027 -53.572476 10.158418 0.000000 0.000000 0.000000 4.695464 -0.920404 -0.311782 -2.997474 9.259887 21.034811 8.681147 1.966597 0.170272 -10.383197 2.355717 57.857672 -4.390142 40.555911 0.959058 0.000000 0.000000 0.000000 
9.334109 93.370445 -2.936634 0.000000 0.000000 0.000000 -24.711315 -44.085767 -18.723558 4.529601 24.522737 -3.466823 21.536449 7.517780 1.412058 -10.104741 7.493997 -2.370375 -5.687077 -1.176419 -1.788966 0.000000 0.000000 0.000000 -23.254028 -44.397001 -18.205816 7.582140 -8.205624 -1.537813 17.412089 14.548646 -1.501966 -13.439452 -22.925023 10.145851 -3.742377 6.900529 -8.866112 0.000000 0.000000 0.000000 -23.179651 -42.682156 -19.600870 8.749732 -3.651969 -1.901640 3.330369 -0.678345 -1.102589 0.191791 -0.060156 0.036713 0.000000 0.000000 0.000000 6.119763 1.258616 -0.642241 7.400412 9.089383 3.959232 -15.034817 -18.983553 14.240361 0.000000 0.000000 0.000000 6.237320 -0.726388 -0.818633 3.486923 -5.363473 -12.291128 6.727359 -9.210939 -0.110917 -27.811823 12.399350 -33.738764 14.020801 -53.531478 10.118188 0.000000 0.000000 0.000000 4.708703 -0.990678 -0.355257 -3.053160 9.354438 21.262966 8.907114 2.028162 0.055313 -10.552623 2.555661 57.925161 -4.332260 40.405483 0.824677 0.000000 0.000000 0.000000 
9.945738 93.250977 -2.383282 0.000000 0.000000 0.000000 -25.938612 -46.491981 -20.425826 5.101228 26.373206 -3.161702 21.596047 7.374034 1.017347 -11.182326 6.928697 -2.013471 -5.024249 -1.181820 -1.623513 0.000000 0.000000 0.000000 -24.554211 -47.149411 -19.957225 6.770281 -7.459425 -0.942140 18.900967 13.124314 -1.300570 -13.913804 -22.751770 9.627154 -3.378486 6.657350 -7.752984 0.000000 0.000000 0.000000 -24.031128 -44.986935 -21.015802 8.866152 -3.709042 -1.931541 3.244269 -0.684851 -1.180034 0.168840 -0.109374 0.035991 0.000000 0.000000 0.000000 6.258774 1.237703 -0.661410 7.347160 9.324112 4.110751 -15.573859 -18.185942 14.602810 0.000000 0.000000 0.000000 6.295998 -0.725266 -0.853676 3.558939 -5.007700 -12.238553 6.814684 -9.371938 -0.043179 -28.028839 12.303201 -33.819282 14.019394 -53.461991 10.117247 0.000000 0.000000 0.000000 4.690774 -1.053935 -0.406684 -3.113491 9.398320 21.452593 9.098912 2.038038 -0.065691 -10.679484 2.738278 58.044081 -4.277595 40.302593 0.730276 0.000000 0.000000 0.000000 
